<svg width="48" height="48" viewBox="0 0 48 48" fill="none" xmlns="http://www.w3.org/2000/svg">
  <g clip-path="url(#clip0_61_2)">
    <mask id="mask0_61_2" style="mask-type:luminance" maskUnits="userSpaceOnUse" x="0" y="0"
      width="48" height="48">
      <path d="M48 0H0V48H48V0Z" fill="white" />
    </mask>
    <g mask="url(#mask0_61_2)">
      <path
        d="M6.78396 35.9287C5.85353 35.3934 5.28 34.4018 5.28 33.3283V15.7172C5.28 14.9485 6.11112 14.4672 6.77778 14.8499L22.0876 23.6368C23.0196 24.1717 23.5943 25.1642 23.5943 26.2387V43.871C23.5943 44.6401 22.7622 45.1213 22.0956 44.7378L6.78396 35.9287Z"
        fill="#754BBB" />
      <path
        d="M26.509 44.7166C25.8424 45.1076 25.0031 44.6269 25.0031 43.854V26.2451C25.0031 25.1807 25.567 24.196 26.4851 23.6575L41.4591 14.8736C42.1258 14.4826 42.9651 14.9633 42.9651 15.7362V33.3452C42.9651 34.4096 42.4011 35.3943 41.483 35.9328L26.509 44.7166Z"
        fill="#6637B3" />
      <path
        d="M25.772 3.23072C24.8575 2.71506 23.7398 2.71506 22.8253 3.23072L7.50871 11.8664C6.83472 12.2464 6.82912 13.2151 7.49867 13.6029L22.7951 22.4619C23.7251 23.0005 24.8722 23.0005 25.8022 22.4619L41.0986 13.6029C41.7682 13.2151 41.7626 12.2464 41.0886 11.8664L25.772 3.23072Z"
        fill="#8C69C6" />
    </g>
  </g>
  <defs>
    <clipPath id="clip0_61_2">
      <rect width="48" height="48" fill="white" />
    </clipPath>
  </defs>
</svg>